<svg width="56" height="25" viewBox="0 0 56 25" fill="none" xmlns="http://www.w3.org/2000/svg">
<path d="M22.4091 12.3636C22.4091 14.9015 21.928 17.0606 20.9659 18.8409C20.0114 20.6212 18.7083 21.9811 17.0568 22.9205C15.4129 23.8523 13.5644 24.3182 11.5114 24.3182C9.44318 24.3182 7.58712 23.8485 5.94318 22.9091C4.29924 21.9697 3 20.6098 2.04545 18.8295C1.09091 17.0492 0.613636 14.8939 0.613636 12.3636C0.613636 9.82576 1.09091 7.66667 2.04545 5.88636C3 4.10606 4.29924 2.75 5.94318 1.81818C7.58712 0.878787 9.44318 0.40909 11.5114 0.40909C13.5644 0.40909 15.4129 0.878787 17.0568 1.81818C18.7083 2.75 20.0114 4.10606 20.9659 5.88636C21.928 7.66667 22.4091 9.82576 22.4091 12.3636ZM17.4205 12.3636C17.4205 10.7197 17.1742 9.33333 16.6818 8.20455C16.197 7.07576 15.5114 6.2197 14.625 5.63636C13.7386 5.05303 12.7008 4.76136 11.5114 4.76136C10.322 4.76136 9.28409 5.05303 8.39773 5.63636C7.51136 6.2197 6.82197 7.07576 6.32955 8.20455C5.8447 9.33333 5.60227 10.7197 5.60227 12.3636C5.60227 14.0076 5.8447 15.3939 6.32955 16.5227C6.82197 17.6515 7.51136 18.5076 8.39773 19.0909C9.28409 19.6742 10.322 19.9659 11.5114 19.9659C12.7008 19.9659 13.7386 19.6742 14.625 19.0909C15.5114 18.5076 16.197 17.6515 16.6818 16.5227C17.1742 15.3939 17.4205 14.0076 17.4205 12.3636Z" fill="#FF6262"/>
<path d="M25.0426 24V12.3636H27.5028V21.9716H32.4915V24H25.0426ZM36.4233 24H33.7869L37.804 12.3636H40.9744L44.9858 24H42.3494L39.4347 15.0227H39.3438L36.4233 24ZM36.2585 19.4261H42.4858V21.3466H36.2585V19.4261ZM46.3864 24V12.3636H50.9773C51.8598 12.3636 52.6117 12.5322 53.233 12.8693C53.8542 13.2027 54.3277 13.6667 54.6534 14.2614C54.983 14.8523 55.1477 15.5341 55.1477 16.3068C55.1477 17.0795 54.9811 17.7614 54.6477 18.3523C54.3144 18.9432 53.8314 19.4034 53.1989 19.733C52.5701 20.0625 51.8087 20.2273 50.9148 20.2273H47.9886V18.2557H50.517C50.9905 18.2557 51.3807 18.1742 51.6875 18.0114C51.9981 17.8447 52.2292 17.6155 52.3807 17.3239C52.536 17.0284 52.6136 16.6894 52.6136 16.3068C52.6136 15.9205 52.536 15.5833 52.3807 15.2955C52.2292 15.0038 51.9981 14.7784 51.6875 14.6193C51.3769 14.4564 50.983 14.375 50.5057 14.375H48.8466V24H46.3864Z" fill="white"/>
</svg>
