<svg width="58" height="39" viewBox="0 0 58 39" fill="none" xmlns="http://www.w3.org/2000/svg">
<path d="M23.4091 19.3636C23.4091 21.9015 22.928 24.0606 21.9659 25.8409C21.0114 27.6212 19.7083 28.9811 18.0568 29.9205C16.4129 30.8523 14.5644 31.3182 12.5114 31.3182C10.4432 31.3182 8.58712 30.8485 6.94318 29.9091C5.29924 28.9697 4 27.6098 3.04545 25.8295C2.09091 24.0492 1.61364 21.8939 1.61364 19.3636C1.61364 16.8258 2.09091 14.6667 3.04545 12.8864C4 11.1061 5.29924 9.75 6.94318 8.81818C8.58712 7.87879 10.4432 7.40909 12.5114 7.40909C14.5644 7.40909 16.4129 7.87879 18.0568 8.81818C19.7083 9.75 21.0114 11.1061 21.9659 12.8864C22.928 14.6667 23.4091 16.8258 23.4091 19.3636ZM18.4205 19.3636C18.4205 17.7197 18.1742 16.3333 17.6818 15.2045C17.197 14.0758 16.5114 13.2197 15.625 12.6364C14.7386 12.053 13.7008 11.7614 12.5114 11.7614C11.322 11.7614 10.2841 12.053 9.39773 12.6364C8.51136 13.2197 7.82197 14.0758 7.32955 15.2045C6.8447 16.3333 6.60227 17.7197 6.60227 19.3636C6.60227 21.0076 6.8447 22.3939 7.32955 23.5227C7.82197 24.6515 8.51136 25.5076 9.39773 26.0909C10.2841 26.6742 11.322 26.9659 12.5114 26.9659C13.7008 26.9659 14.7386 26.6742 15.625 26.0909C16.5114 25.5076 17.197 24.6515 17.6818 23.5227C18.1742 22.3939 18.4205 21.0076 18.4205 19.3636Z" fill="#FF6262"/>
<path d="M27.0114 25V13.3636H29.4716V22.9716H34.4602V25H27.0114ZM38.392 25H35.7557L39.7727 13.3636H42.9432L46.9545 25H44.3182L41.4034 16.0227H41.3125L38.392 25ZM38.2273 20.4261H44.4545V22.3466H38.2273V20.4261ZM48.3551 25V13.3636H52.946C53.8286 13.3636 54.5805 13.5322 55.2017 13.8693C55.8229 14.2027 56.2964 14.6667 56.6222 15.2614C56.9517 15.8523 57.1165 16.5341 57.1165 17.3068C57.1165 18.0795 56.9498 18.7614 56.6165 19.3523C56.2831 19.9432 55.8002 20.4034 55.1676 20.733C54.5388 21.0625 53.7775 21.2273 52.8835 21.2273H49.9574V19.2557H52.4858C52.9593 19.2557 53.3494 19.1742 53.6562 19.0114C53.9669 18.8447 54.1979 18.6155 54.3494 18.3239C54.5047 18.0284 54.5824 17.6894 54.5824 17.3068C54.5824 16.9205 54.5047 16.5833 54.3494 16.2955C54.1979 16.0038 53.9669 15.7784 53.6562 15.6193C53.3456 15.4564 52.9517 15.375 52.4744 15.375H50.8153V25H48.3551Z" fill="black"/>
</svg>
